# xmcd
#
# Track frame offsets: 
#        150
#        22252
#        42811
#        60555
#        82910
#        101809
#        114699
#        136518
#        158855
#        174650
#        194798
#        214437
#
# Disc length: 3314 seconds
#
# Revision: 2
# Processed by: cddbd v1.5.2PL0 Copyright (c) Steve Scherf et al.
# Submitted via: ExactAudioCopy v0.99pb4
#
DISCID=ab0cf00c
DTITLE=Marcus Malone - Hurricane
DYEAR=2007
DGENRE=Blues
TTITLE0=Hurricane
TTITLE1=Going Back To Detroit
TTITLE2=Mean Mistreatin Woman
TTITLE3=Be Still My Beating Heart
TTITLE4=Little Ms Know It All
TTITLE5=Rolling Stone
TTITLE6=Crawlin
TTITLE7=Christine
TTITLE8=Taste Of Your Love
TTITLE9=Round The Corner
TTITLE10=Love Won't Wait
TTITLE11=Whiskey Talkin
EXTD=
EXTT0=
EXTT1=
EXTT2=
EXTT3=
EXTT4=
EXTT5=
EXTT6=
EXTT7=
EXTT8=
EXTT9=
EXTT10=
EXTT11=
PLAYORDER=
